name C:\Users\u0101727\Documents\MyRepositories\paper-ad\predictivesimulations_2d/Results/PredSim_2D/IK_c17.mot
datacolumns 11
datarows 43
range 1.27594964 1.67888111
endheader
time	pelvis_tilt	pelvis_tx	pelvis_ty	hip_flexion_l	hip_flexion_r	knee_angle_l	knee_angle_r	ankle_angle_l	ankle_angle_r	lumbar_extension	
          1.27594964	        -15.14789407	          1.69369860	          0.90058968	         33.23299350	         10.41662354	        -37.56460607	         -7.29949173	         15.70358808	         11.29725031	          9.47789779	
          1.28554325	        -15.14721980	          1.70568583	          0.89973235	         34.20137519	          9.64090733	        -36.09174840	         -7.34707581	         15.98947850	         11.30746371	          9.43801170	
          1.29513686	        -15.14762993	          1.71772847	          0.89881690	         35.10862475	          8.88280747	        -34.50222930	         -7.43031188	         16.19445153	         11.30551310	          9.40137411	
          1.30473046	        -15.14951518	          1.72983301	          0.89784215	         35.95127696	          8.14127394	        -32.80378246	         -7.54813907	         16.32762792	         11.29498362	          9.36829400	
          1.31432407	        -15.15319589	          1.74200760	          0.89680695	         36.72476002	          7.41595734	        -31.00787690	         -7.70085571	         16.39779084	         11.27667622	          9.33915761	
          1.32391767	        -15.15873933	          1.75426425	          0.89571397	         37.42240158	          6.70775724	        -29.14069405	         -7.89214507	         16.41308360	         11.24897095	          9.31455431	
          1.33351128	        -15.16616982	          1.76662122	          0.89457567	         38.03127687	          6.01871327	        -27.23642249	         -8.12826704	         16.38079472	         11.20581040	          9.29578765	
          1.34310489	        -15.17550391	          1.77910010	          0.89341379	         38.53558985	          5.35199445	        -25.32728411	         -8.41637059	         16.30731832	         11.13474646	          9.28458155	
          1.35269849	        -15.18642089	          1.79171969	          0.89225088	         38.92588087	          4.71202439	        -23.44115506	         -8.76495923	         16.19804521	         11.01948459	          9.28212686	
          1.36229210	        -15.19812346	          1.80449462	          0.89110488	         39.20198851	          4.10407708	        -21.59990418	         -9.18390793	         16.05710428	         10.84349607	          9.28882945	
          1.37188571	        -15.20940108	          1.81743771	          0.88999009	         39.37080759	          3.53342492	        -19.82518437	         -9.68350229	         15.88710146	         10.59251081	          9.30461759	
          1.38147931	        -15.21903656	          1.83056284	          0.88891864	         39.43955721	          3.00493887	        -18.13181920	        -10.27339484	         15.68923706	         10.25369442	          9.32958408	
          1.39107292	        -15.22588701	          1.84388447	          0.88789971	         39.41504609	          2.52305821	        -16.53156097	        -10.96216393	         15.46340949	          9.81490766	          9.36396644	
          1.40066653	        -15.22869916	          1.85741676	          0.88693856	         39.30486688	          2.09240726	        -15.04144608	        -11.75881976	         15.20833553	          9.26530585	          9.40790283	
          1.41026013	        -15.22621082	          1.87117411	          0.88603625	         39.11406251	          1.71850896	        -13.67603012	        -12.67365493	         14.92199238	          8.59391184	          9.46168576	
          1.41985374	        -15.21701720	          1.88517012	          0.88518850	         38.84741984	          1.40727001	        -12.45522836	        -13.71759623	         14.60149176	          7.79030008	          9.52556739	
          1.42944734	        -15.19956160	          1.89941654	          0.88438416	         38.51029203	          1.16434276	        -11.40782282	        -14.90084320	         14.24302996	          6.84698048	          9.59969873	
          1.43904095	        -15.17240489	          1.91392446	          0.88360415	         38.10300098	          0.99451040	        -10.56466133	        -16.23267787	         13.84224218	          5.76398031	          9.68467141	
          1.44863456	        -15.13435906	          1.92870214	          0.88281691	         37.61851363	          0.90069613	         -9.95940499	        -17.72607602	         13.39414274	          4.56366599	          9.78154772	
          1.45822816	        -15.08526919	          1.94374327	          0.88197860	         37.03885511	          0.88562471	         -9.64021609	        -19.38697609	         12.89393672	          3.25957266	          9.89146917	
          1.46782177	        -15.02769315	          1.95903084	          0.88111263	         36.29594489	          0.95653181	         -9.72768731	        -21.21227262	         12.33955683	          1.83174764	         10.01841127	
          1.47741538	        -14.96984252	          1.97437895	          0.88034595	         35.43291916	          1.11805484	        -10.04208921	        -23.18340236	         11.77035075	          0.36557723	         10.15294531	
          1.48700898	        -14.92269233	          1.98944689	          0.87990817	         34.57497933	          1.39704077	        -10.32243584	        -25.20790220	         11.22026568	         -0.91752167	         10.27182752	
          1.49660259	        -14.89480381	          2.00398757	          0.88006120	         33.75938467	          1.82174987	        -10.58089055	        -27.14554552	         10.68916788	         -1.91959179	         10.36114804	
          1.50619619	        -14.88851341	          2.01793805	          0.88096093	         32.98858722	          2.38808578	        -10.81233174	        -28.93371287	         10.19169735	         -2.66996430	         10.41976601	
          1.51578980	        -14.89912821	          2.03138164	          0.88256647	         32.24405571	          3.07926226	        -11.00476887	        -30.59313625	          9.74414012	         -3.17805373	         10.45382214	
          1.52538341	        -14.92005611	          2.04444254	          0.88466794	         31.50466911	          3.87473837	        -11.14927060	        -32.15293356	          9.35798305	         -3.45660496	         10.47033912	
          1.53497701	        -14.94593487	          2.05722823	          0.88703266	         30.75362072	          4.75896050	        -11.23901325	        -33.63068845	          9.03949737	         -3.52119718	         10.47462808	
          1.54457062	        -14.97332799	          2.06981293	          0.88947788	         29.98146978	          5.71990869	        -11.27208413	        -35.03486281	          8.79030573	         -3.38685694	         10.46988244	
          1.55416423	        -15.00034132	          2.08224359	          0.89187996	         29.18369696	          6.74857818	        -11.24892862	        -36.36677321	          8.60936523	         -3.06987740	         10.45785739	
          1.56375783	        -15.02601251	          2.09455029	          0.89415969	         28.35875362	          7.83756642	        -11.17154824	        -37.62332169	          8.49402868	         -2.58698906	         10.43956161	
          1.57335144	        -15.04985278	          2.10675332	          0.89626666	         27.50701537	          8.98069554	        -11.04342659	        -38.79962586	          8.44054993	         -1.95505841	         10.41561184	
          1.58294505	        -15.07159385	          2.11886776	          0.89816845	         26.63013819	         10.17241474	        -10.86942237	        -39.88958800	          8.44437121	         -1.19104466	         10.38645915	
          1.59253865	        -15.09106390	          2.13090601	          0.89984408	         25.73071599	         11.40737092	        -10.65555716	        -40.88643364	          8.50034392	         -0.31212588	         10.35251088	
          1.60213226	        -15.10813749	          2.14287901	          0.90128093	         24.81204588	         12.68012860	        -10.40885996	        -41.78299823	          8.60287955	          0.66430210	         10.31418390	
          1.61172586	        -15.12272693	          2.15479621	          0.90247412	         23.87811630	         13.98535075	        -10.13734006	        -42.57166716	          8.74616299	          1.72067770	         10.27186693	
          1.62131947	        -15.13481946	          2.16666522	          0.90342695	         22.93335102	         15.31800926	         -9.84877978	        -43.24429523	          8.92431299	          2.83934018	         10.22588285	
          1.63091308	        -15.14453925	          2.17849337	          0.90415005	         21.98163058	         16.67211042	         -9.55022575	        -43.79336751	          9.13081033	          4.00248877	         10.17670890	
          1.64050668	        -15.15204864	          2.19028684	          0.90466045	         21.02715023	         18.04185548	         -9.24925945	        -44.21116801	          9.35796594	          5.19228604	         10.12476901	
          1.65010029	        -15.15748946	          2.20205118	          0.90497894	         20.07448212	         19.42174845	         -8.95373121	        -44.48989060	          9.59774678	          6.39090999	         10.07040587	
          1.65969390	        -15.16100754	          2.21379234	          0.90512699	         19.12842899	         20.80528891	         -8.67202406	        -44.62260394	          9.84222648	          7.58055583	         10.01399851	
          1.66928750	        -15.16282466	          2.22551739	          0.90512490	         18.19220117	         22.18557726	         -8.40970286	        -44.60366237	         10.08410253	          8.74354295	          9.95608032	
          1.67888111	        -15.16325907	          2.23723464	          0.90499078	         17.26659595	         23.55571904	         -8.16803955	        -44.42902847	         10.31675374	          9.86249801	          9.89739481	
